<svg width="78" height="49" viewBox="0 0 78 49" fill="none" xmlns="http://www.w3.org/2000/svg">
<g clip-path="url(#clip0_88_2)">
<path d="M15.6177 24.2007C14.7296 24.2007 13.9919 24.0765 13.4094 23.8306C12.8245 23.5848 12.359 23.2123 12.0129 22.7134C11.6643 22.2144 11.4208 21.5866 11.2823 20.825C11.1439 20.0635 11.0746 19.1659 11.0746 18.125C11.0746 17.7192 10.972 17.1868 10.7691 16.5351C10.5662 15.881 10.3059 15.1839 9.99082 14.439C9.67569 13.6942 9.33192 12.9446 8.96189 12.1902C8.59186 11.4358 8.23854 10.7531 7.90194 10.1419C7.56533 9.53076 7.2693 9.03421 7.01864 8.64746C6.76797 8.26072 6.60325 8.06974 6.52924 8.06974C6.45524 8.06974 6.37646 8.09839 6.29529 8.15807C6.21412 8.21775 6.14489 8.29176 6.08759 8.38247C6.02791 8.47319 5.98017 8.5663 5.94197 8.66418C5.90377 8.75967 5.88468 8.84561 5.88468 8.922C5.88468 9.58567 5.96823 10.2851 6.13295 11.018C6.30006 11.7509 6.50537 12.4982 6.75126 13.2597C6.99715 14.0213 7.26453 14.7733 7.55339 15.5181C7.84225 16.2629 8.10963 16.9767 8.35552 17.6619C8.60141 18.347 8.80672 18.9868 8.97383 19.5813C9.14094 20.1757 9.22211 20.6985 9.22211 21.1473C9.22211 21.7895 9.12423 22.3123 8.92608 22.7134C8.72794 23.1145 8.4343 23.4248 8.04279 23.6444C7.65127 23.8641 7.16904 24.0121 6.59609 24.0861C6.02314 24.1601 5.35708 24.1983 4.59554 24.1983C3.87696 24.1983 3.23478 24.1505 2.66661 24.0527C2.09843 23.9572 1.6162 23.7877 1.21991 23.5466C0.823616 23.3054 0.52043 22.976 0.312735 22.5582C0.105041 22.1404 0 21.6152 0 20.9826C0 20.5863 0.0429712 20.0826 0.128914 19.4714C0.214856 18.8603 0.324672 18.1895 0.45836 17.4542C0.592048 16.7213 0.732899 15.9502 0.883298 15.1409C1.0337 14.3316 1.17455 13.5343 1.30824 12.7464C1.44192 11.9586 1.55174 11.209 1.63768 10.4976C1.72362 9.7862 1.7666 9.16073 1.7666 8.62598C1.7666 8.09122 1.74034 7.61377 1.68543 7.22941C1.63052 6.84267 1.56845 6.50845 1.49206 6.22436C1.41805 5.94027 1.33211 5.68961 1.23423 5.46998C1.13874 5.25035 1.0528 5.04504 0.976403 4.85167C0.902396 4.6583 0.83794 4.46015 0.783032 4.25723C0.728124 4.05431 0.701864 3.82275 0.701864 3.56731C0.701864 3.03255 0.77587 2.60523 0.926269 2.2901C1.07667 1.97498 1.32733 1.73387 1.68065 1.56675C2.03397 1.39964 2.50904 1.2946 3.10348 1.24447C3.69792 1.19434 4.44036 1.17285 5.32844 1.17285C5.72473 1.17285 6.12818 1.36622 6.54118 1.75058C6.95418 2.13732 7.3648 2.6482 7.7778 3.28561C8.1908 3.92301 8.59664 4.64636 8.9977 5.45565C9.39877 6.26495 9.78551 7.09095 10.1555 7.93844C10.5256 8.78354 10.8741 9.61193 11.1988 10.4212C11.5258 11.2305 11.8195 11.9539 12.0821 12.5913C12.3447 13.2287 12.5667 13.7396 12.7481 14.1263C12.9296 14.513 13.0633 14.704 13.1492 14.704C13.2877 14.704 13.4046 14.63 13.4954 14.4796C13.5861 14.3292 13.6625 14.0404 13.7198 13.613C13.7794 13.1857 13.8176 12.5937 13.8391 11.8369C13.8606 11.0825 13.8702 10.1037 13.8702 8.90529C13.8702 8.48751 13.7985 8.04348 13.6529 7.57079C13.5073 7.1005 13.3497 6.62543 13.1779 6.14797C13.006 5.67051 12.8484 5.20976 12.7028 4.76573C12.5572 4.32169 12.4855 3.92301 12.4855 3.56969C12.4855 3.19489 12.519 2.86067 12.5906 2.56464C12.6598 2.27101 12.8269 2.02034 13.0895 1.81742C13.3521 1.6145 13.7341 1.45694 14.2378 1.34235C14.7415 1.23015 15.4267 1.17285 16.2933 1.17285C16.9044 1.17285 17.3914 1.2015 17.7543 1.26118C18.1172 1.32086 18.4012 1.41636 18.6066 1.55004C18.8095 1.68373 18.9432 1.86278 19.0076 2.08718C19.0721 2.31159 19.1031 2.58613 19.1031 2.90603C19.1031 3.56969 19.0458 4.11638 18.9336 4.54371C18.8214 4.97103 18.6949 5.37926 18.5564 5.76361C18.418 6.15036 18.2914 6.5562 18.1792 6.98352C18.067 7.41085 18.0097 7.95754 18.0097 8.6212C18.0097 9.65968 18.1267 10.6743 18.3631 11.665C18.5994 12.6557 18.862 13.6488 19.1509 14.6443C19.4397 15.6398 19.7023 16.6616 19.9387 17.7049C20.175 18.7481 20.292 19.8486 20.292 21.0065C20.292 21.6272 20.2442 22.1452 20.1464 22.5558C20.0509 22.9688 19.8384 23.2959 19.5113 23.537C19.1843 23.7781 18.7116 23.9476 18.0885 24.0431C17.4678 24.1386 16.637 24.1887 15.5986 24.1887L15.6177 24.2007Z" fill="#F24839"/>
<path d="M9.22931 48.4462C8.37704 48.4462 7.60833 48.4534 6.92557 48.4701C6.2428 48.4868 5.62688 48.494 5.08019 48.494C4.36878 48.494 3.77195 48.4606 3.28495 48.3961C2.79794 48.3317 2.40881 48.1932 2.11279 47.9855C1.81676 47.7778 1.60668 47.477 1.48254 47.0831C1.3584 46.6892 1.29395 46.164 1.29395 45.5099C1.29395 44.3186 1.34647 43.2849 1.44912 42.4112C1.55416 41.5374 1.6783 40.7568 1.82631 40.074C1.97432 39.3913 2.13905 38.7682 2.31809 38.2048C2.49714 37.6414 2.66186 37.0851 2.80988 36.5313C2.95789 35.9774 3.08203 35.3997 3.18707 34.7933C3.29211 34.187 3.34224 33.4899 3.34224 32.7021C3.34224 32.1005 3.28017 31.5967 3.15365 31.1933C3.02712 30.7898 2.88627 30.3983 2.72632 30.0211C2.56637 29.6439 2.42552 29.2357 2.299 28.7988C2.17247 28.362 2.1104 27.8105 2.1104 27.1421C2.1104 26.5954 2.22499 26.1728 2.45417 25.872C2.68335 25.5712 3.01518 25.3516 3.44728 25.2155C3.87938 25.0794 4.40936 25.0007 5.03722 24.9768C5.66508 24.9553 6.37888 24.9434 7.17623 24.9434C8.13831 24.9434 9.09799 25.1009 10.0553 25.4184C11.0126 25.7359 11.9269 26.1895 12.8031 26.7792C13.6792 27.3688 14.4957 28.0874 15.2548 28.9349C16.014 29.7824 16.6729 30.7349 17.2315 31.7973C17.7901 32.8572 18.227 34.0198 18.5445 35.2827C18.862 36.5456 19.0196 37.8825 19.0196 39.291C19.0196 40.9645 18.8859 42.3801 18.6185 43.538C18.3512 44.6958 17.857 45.6388 17.1336 46.3669C16.4103 47.095 15.4172 47.6202 14.1495 47.9497C12.8819 48.2768 11.2418 48.4415 9.22931 48.4415V48.4462ZM10.3943 40.6899C10.9195 40.6899 11.3635 40.6159 11.7312 40.4679C12.0964 40.3199 12.3949 40.1098 12.624 39.8377C12.8532 39.5655 13.0179 39.2313 13.1158 38.8374C13.2137 38.4435 13.2638 38.0018 13.2638 37.5101C13.2638 37.1711 13.2089 36.7437 13.0991 36.2305C12.9893 35.7172 12.8317 35.1705 12.624 34.5904C12.4163 34.0103 12.1728 33.435 11.8935 32.8596C11.6142 32.2867 11.3062 31.7662 10.9673 31.3007C10.6283 30.8352 10.2678 30.458 9.88581 30.1691C9.50384 29.8803 9.10517 29.7347 8.68978 29.7347C8.49402 29.7347 8.32452 29.8063 8.18128 29.9471C8.03805 30.088 7.91868 30.2742 7.8208 30.5057C7.72292 30.7373 7.64653 30.9928 7.59162 31.2768C7.53671 31.5609 7.49613 31.8402 7.46748 32.1124C7.43884 32.3845 7.42212 32.64 7.41019 32.8739C7.39825 33.1079 7.39348 33.2965 7.39348 33.4397C7.39348 33.7787 7.39586 34.1941 7.40064 34.6859C7.40541 35.1777 7.43645 35.6933 7.49136 36.2353C7.54626 36.7772 7.63459 37.3119 7.75396 37.8419C7.87332 38.3719 8.04521 38.8469 8.26961 39.2695C8.49402 39.6921 8.7781 40.031 9.12187 40.2936C9.46564 40.5562 9.89058 40.6875 10.3919 40.6875L10.3943 40.6899Z" fill="white"/>
<path d="M50.8015 48.4943C49.849 48.4943 49.0421 48.4633 48.3784 48.4036C47.7171 48.3439 47.1776 48.2055 46.7598 47.993C46.3421 47.7805 46.0436 47.4654 45.8574 47.0476C45.6712 46.6298 45.5781 46.0736 45.5781 45.3717C45.5781 44.6174 45.6736 43.7388 45.8646 42.7362C46.0556 41.7335 46.2681 40.6688 46.4972 39.542C46.7264 38.4152 46.9389 37.2549 47.1299 36.0613C47.3208 34.8677 47.4163 33.6955 47.4163 32.5472C47.4163 31.9456 47.3567 31.4491 47.2349 31.0599C47.1132 30.6708 46.9842 30.3127 46.841 29.9833C46.6978 29.6538 46.5665 29.3172 46.4471 28.9734C46.3277 28.6297 46.2657 28.2047 46.2657 27.701C46.2657 27.1328 46.3206 26.6697 46.4304 26.314C46.5402 25.9583 46.7169 25.679 46.9651 25.476C47.2134 25.2731 47.5381 25.1371 47.9415 25.0654C48.345 24.9938 48.8392 24.958 49.4193 24.958H53.0313C53.6114 24.958 54.2392 25.0368 54.9124 25.1967C55.5857 25.3567 56.2565 25.6026 56.9249 25.9368C57.5934 26.271 58.2379 26.696 58.8634 27.2092C59.4889 27.7225 60.0403 28.336 60.5226 29.0474C61.0048 29.7589 61.3868 30.5777 61.6732 31.5016C61.9597 32.4255 62.1006 33.4592 62.1006 34.5979C62.1006 35.6149 62.0242 36.4791 61.8714 37.1833C61.7186 37.89 61.4417 38.4653 61.043 38.907C60.6443 39.3486 60.0952 39.6709 59.4005 39.8666C58.7058 40.0624 57.8106 40.1627 56.7148 40.1627C56.1992 40.1627 55.7504 40.0696 55.3684 39.8834C54.9864 39.6971 54.6546 39.4918 54.3753 39.2674C54.096 39.043 53.8573 38.8377 53.6615 38.6515C53.4634 38.4653 53.301 38.3722 53.1697 38.3722C53.0265 38.3722 52.9429 38.4462 52.9143 38.5942C52.8856 38.7422 52.8737 38.8592 52.8737 38.9475C52.8737 39.3319 52.9429 39.7258 53.079 40.1292C53.2151 40.5351 53.3893 40.9362 53.597 41.3372C53.8047 41.7359 54.0291 42.125 54.2703 42.5022C54.5114 42.8794 54.7358 43.2447 54.9435 43.5932C55.1512 43.9441 55.3231 44.2688 55.4615 44.5696C55.6 44.8704 55.6668 45.1354 55.6668 45.367C55.6668 45.9351 55.5809 46.4198 55.4114 46.8208C55.2419 47.2219 54.965 47.5442 54.583 47.7901C54.201 48.036 53.6997 48.215 53.0814 48.3248C52.4631 48.4346 51.7039 48.4895 50.8063 48.4895L50.8015 48.4943ZM54.7262 36.1472C55.4806 36.1472 56.001 35.9945 56.2851 35.6865C56.5692 35.3785 56.7125 34.925 56.7125 34.3234C56.7125 34.1252 56.6981 33.8817 56.6719 33.5928C56.6456 33.304 56.5979 32.9984 56.5334 32.6809C56.469 32.3634 56.3711 32.0435 56.2469 31.7212C56.1228 31.3989 55.9652 31.1077 55.779 30.8498C55.5928 30.592 55.366 30.3843 55.0986 30.2268C54.8313 30.0692 54.5161 29.988 54.1533 29.988C53.4848 29.988 52.9692 30.1957 52.6015 30.6111C52.2339 31.0265 52.0525 31.6735 52.0525 32.5496C52.0525 33.0963 52.1026 33.5928 52.2005 34.0369C52.2984 34.4809 52.4559 34.8581 52.6684 35.1708C52.8809 35.4836 53.1578 35.7247 53.4968 35.8942C53.8358 36.0637 54.2464 36.1496 54.7286 36.1496L54.7262 36.1472Z" fill="white"/>
<path d="M67.5176 48.494C66.4887 48.494 65.6173 48.4582 64.9059 48.3866C64.1945 48.3149 63.6167 48.1645 63.1727 47.9354C62.7287 47.7062 62.4088 47.3744 62.213 46.9423C62.0173 46.5102 61.917 45.9324 61.917 45.2091C61.917 43.939 62.0292 42.7717 62.2536 41.7021C62.478 40.6326 62.7263 39.6061 63.0008 38.6154C63.2754 37.6247 63.5236 36.6387 63.748 35.6599C63.9724 34.6811 64.0847 33.6427 64.0847 32.5493C64.0847 32.1005 64.0536 31.7042 63.9939 31.358C63.9342 31.0142 63.8579 30.7039 63.7648 30.4294C63.6716 30.1548 63.5714 29.9018 63.4616 29.6654C63.3518 29.4291 63.2515 29.1951 63.1584 28.9588C63.0653 28.7224 62.9889 28.4718 62.9292 28.2044C62.8695 27.937 62.8385 27.6314 62.8385 27.2925C62.8385 26.7768 62.9149 26.3686 63.0677 26.0606C63.2205 25.755 63.4759 25.5163 63.8316 25.3468C64.1873 25.1773 64.6576 25.0675 65.2449 25.0174C65.8298 24.9672 66.5507 24.9434 67.4054 24.9434L74.0397 24.9601C74.467 24.9601 74.8633 25.0102 75.2309 25.1081C75.5986 25.206 75.9113 25.3755 76.1763 25.6166C76.4413 25.8577 76.6442 26.1848 76.7922 26.6025C76.9402 27.0179 77.0142 27.5431 77.0142 28.1781C77.0142 28.3643 76.9808 28.5529 76.9163 28.7439C76.8495 28.9349 76.7492 29.1044 76.6132 29.2524C76.4771 29.4004 76.2957 29.5198 76.0712 29.6129C75.8468 29.706 75.5747 29.7514 75.2596 29.7514C75.1283 29.7514 74.923 29.7012 74.6436 29.6034C74.3643 29.5055 74.0325 29.398 73.6505 29.2835C73.2662 29.1689 72.8389 29.0614 72.3614 28.9636C71.8839 28.8657 71.385 28.8155 70.8598 28.8155C69.776 28.8155 69.0144 29.0232 68.5775 29.4386C68.1407 29.854 67.921 30.5225 67.921 31.4416C67.921 31.7806 67.9807 32.036 68.1025 32.2055C68.2242 32.375 68.4033 32.492 68.6444 32.5588C68.8855 32.6257 69.1911 32.6567 69.5635 32.6567H70.8598C71.1105 32.6567 71.416 32.6233 71.7717 32.5588C72.1274 32.4944 72.4784 32.4204 72.8221 32.3368C73.1659 32.2532 73.4834 32.1816 73.7747 32.1148C74.0659 32.0479 74.2641 32.0169 74.3739 32.0169C74.6031 32.0169 74.8251 32.0479 75.0399 32.1076C75.2548 32.1673 75.4386 32.2509 75.5986 32.3535C75.7585 32.4562 75.8826 32.5827 75.9758 32.7307C76.0689 32.8787 76.1142 33.0339 76.1142 33.1986C76.1142 33.3633 76.0927 33.5877 76.0474 33.8718C76.002 34.1559 75.8803 34.4352 75.6773 34.7098C75.4744 34.9843 75.1593 35.2183 74.732 35.4164C74.3047 35.6146 73.715 35.7124 72.9582 35.7124C72.8484 35.7124 72.6956 35.6909 72.4975 35.6456C72.2993 35.6002 72.0821 35.5525 71.841 35.4976C71.5999 35.4427 71.342 35.3925 71.0699 35.3496C70.7977 35.3066 70.5232 35.2827 70.2486 35.2827C70.0075 35.2827 69.776 35.3233 69.5515 35.4069C69.3271 35.4904 69.1338 35.6074 68.9691 35.7602C68.8043 35.913 68.673 36.0944 68.5751 36.3021C68.4773 36.5098 68.4271 36.7461 68.4271 37.0087C68.4271 37.4146 68.5059 37.756 68.6659 38.0353C68.8234 38.3146 69.0264 38.5414 69.2746 38.7156C69.5229 38.8899 69.7903 39.0164 70.0791 39.0928C70.368 39.1692 70.6402 39.2074 70.8908 39.2074C71.1868 39.2074 71.4924 39.1931 71.8099 39.1668C72.1274 39.1406 72.4426 39.0905 72.7553 39.0188C73.068 38.9472 73.3688 38.8517 73.6577 38.7324C73.9466 38.613 74.2068 38.453 74.4383 38.2573C74.5577 38.1594 74.689 38.0639 74.8322 37.9708C74.9755 37.8777 75.1283 37.8323 75.293 37.8323C75.8612 37.8323 76.3243 37.9899 76.68 38.3074C77.0357 38.6249 77.3126 39.0952 77.5084 39.7207C77.7042 40.3462 77.8378 41.122 77.9023 42.0531C77.9691 42.9841 78.0002 44.056 78.0002 45.2712C78.0002 45.7629 77.9214 46.2094 77.7614 46.6104C77.6015 47.0115 77.3246 47.3505 76.9235 47.6274C76.5248 47.9067 75.9877 48.1192 75.3145 48.2672C74.6413 48.4152 73.789 48.4892 72.7601 48.4892H67.5223L67.5176 48.494Z" fill="white"/>
<path d="M45.1533 11.9556C45.1533 5.35269 39.8006 0 33.1977 0C26.5949 0 21.2422 5.35269 21.2422 11.9556V36.5972C21.2422 43.2001 26.5949 48.5527 33.1977 48.5527C39.8006 48.5527 45.1533 43.2001 45.1533 36.5972V11.9556Z" fill="#F24839"/>
<path d="M33.1978 21.4024C38.2765 21.4024 42.3937 17.2853 42.3937 12.2066C42.3937 7.12786 38.2765 3.01074 33.1978 3.01074C28.1191 3.01074 24.002 7.12786 24.002 12.2066C24.002 17.2853 28.1191 21.4024 33.1978 21.4024Z" fill="white"/>
</g>
<defs>
<clipPath id="clip0_88_2">
<rect width="78" height="49" fill="white"/>
</clipPath>
</defs>
</svg>
