<svg width="297" height="154" viewBox="0 0 297 154" fill="none" xmlns="http://www.w3.org/2000/svg">
<path d="M77.0429 33.0229C75.7731 33.0229 74.7174 32.847 73.8759 32.4951C73.0497 32.1432 72.3842 31.6154 71.8793 30.9116C71.3898 30.1925 71.0455 29.2899 70.8466 28.2036C70.6477 27.1174 70.5483 25.8322 70.5483 24.3481C70.5483 23.7668 70.4029 23.0094 70.1122 22.0762C69.8216 21.1429 69.4467 20.1484 68.9877 19.0928C68.544 18.0218 68.0545 16.9508 67.519 15.8799C66.9988 14.7936 66.4939 13.8145 66.0043 12.9424C65.53 12.0703 65.1093 11.3589 64.7421 10.8081C64.3902 10.2573 64.1607 9.98193 64.0536 9.98193C63.9466 9.98193 63.8318 10.0278 63.7094 10.1196C63.6023 10.1961 63.5029 10.3032 63.4111 10.4409C63.3346 10.5633 63.2657 10.6934 63.2045 10.8311C63.1586 10.9688 63.1357 11.0911 63.1357 11.1982C63.1357 12.1468 63.2504 13.1489 63.4799 14.2046C63.7247 15.245 64.0231 16.3083 64.3749 17.3945C64.7268 18.4808 65.1093 19.5594 65.5224 20.6304C65.9355 21.686 66.318 22.7035 66.6699 23.6826C67.0217 24.6618 67.3124 25.5798 67.5419 26.4365C67.7867 27.278 67.9091 28.02 67.9091 28.6626C67.9091 29.5806 67.7638 30.3302 67.4731 30.9116C67.1977 31.4777 66.777 31.9214 66.2109 32.2427C65.6601 32.5487 64.9716 32.7552 64.1454 32.8623C63.3346 32.9694 62.386 33.0229 61.2997 33.0229C60.2747 33.0229 59.3567 32.9541 58.5458 32.8164C57.735 32.6787 57.0465 32.4416 56.4804 32.105C55.9143 31.7531 55.4783 31.2788 55.1723 30.6821C54.8816 30.0854 54.7363 29.3358 54.7363 28.4331C54.7363 27.867 54.7975 27.1479 54.9199 26.2759C55.0423 25.4038 55.1953 24.4476 55.3788 23.4072C55.5777 22.3516 55.7843 21.25 55.9985 20.1025C56.2127 18.9398 56.4116 17.8 56.5952 16.6831C56.794 15.5509 56.9547 14.48 57.0771 13.4702C57.1995 12.4451 57.2607 11.5501 57.2607 10.7852C57.2607 10.0049 57.2224 9.33936 57.1459 8.78857C57.0694 8.23779 56.9776 7.76351 56.8705 7.36572C56.7634 6.95264 56.6411 6.5931 56.5034 6.28711C56.3657 5.96582 56.2433 5.66748 56.1362 5.39209C56.0291 5.1167 55.9373 4.83366 55.8608 4.54297C55.7843 4.25228 55.746 3.92334 55.746 3.55615C55.746 2.79118 55.8531 2.18685 56.0673 1.74316C56.2815 1.28418 56.6411 0.939941 57.1459 0.710449C57.6508 0.465658 58.324 0.312663 59.1655 0.251465C60.0222 0.174967 61.0856 0.136719 62.3554 0.136719C62.9215 0.136719 63.4952 0.412109 64.0766 0.962891C64.6733 1.51367 65.2623 2.24805 65.8437 3.16602C66.4404 4.06868 67.0217 5.1014 67.5878 6.26416C68.1692 7.41162 68.72 8.58968 69.2402 9.79834C69.7757 11.007 70.2729 12.1927 70.7319 13.3555C71.2062 14.5029 71.6269 15.5356 71.9941 16.4536C72.3766 17.3563 72.6979 18.083 72.9579 18.6338C73.218 19.1846 73.4093 19.46 73.5317 19.46C73.7306 19.46 73.8912 19.3529 74.0136 19.1387C74.1513 18.9245 74.2584 18.5114 74.3349 17.8994C74.4267 17.2874 74.4879 16.446 74.5185 15.375C74.5491 14.2887 74.5644 12.8888 74.5644 11.1753C74.5644 10.5786 74.4573 9.94368 74.2431 9.27051C74.0442 8.59733 73.8224 7.92415 73.5776 7.25098C73.3328 6.5625 73.1033 5.90462 72.8891 5.27734C72.6902 4.63477 72.5908 4.06104 72.5908 3.55615C72.5908 3.02067 72.6367 2.54639 72.7285 2.1333C72.8356 1.70492 73.0727 1.34538 73.4399 1.05469C73.8224 0.763997 74.3731 0.542155 75.0922 0.38916C75.8113 0.220866 76.7905 0.136719 78.0297 0.136719C78.9018 0.136719 79.5979 0.182617 80.1181 0.274414C80.6383 0.350911 81.0437 0.488607 81.3344 0.6875C81.6251 0.871094 81.8163 1.12354 81.9081 1.44482C81.9999 1.76611 82.0458 2.15625 82.0458 2.61523C82.0458 3.5638 81.9617 4.34408 81.7934 4.95605C81.6404 5.56803 81.4645 6.14941 81.2656 6.7002C81.0667 7.25098 80.8831 7.83236 80.7148 8.44434C80.5618 9.05632 80.4853 9.83659 80.4853 10.7852C80.4853 12.2692 80.6536 13.7227 80.9902 15.1455C81.3268 16.5531 81.7016 17.9683 82.1147 19.3911C82.5278 20.814 82.9026 22.2751 83.2392 23.7744C83.5758 25.2585 83.7441 26.8267 83.7441 28.479C83.7441 29.3664 83.6752 30.1084 83.5375 30.7051C83.3998 31.2865 83.0939 31.7531 82.6196 32.105C82.1606 32.4416 81.4874 32.6787 80.6 32.8164C79.7127 32.9541 78.527 33.0229 77.0429 33.0229ZM97.5724 33.0229C95.6752 33.0229 94.0152 32.9541 92.5924 32.8164C91.1695 32.6634 89.9456 32.411 88.9205 32.0591C87.9107 31.6919 87.0769 31.2023 86.419 30.5903C85.7612 29.9784 85.241 29.2134 84.8585 28.2954C84.476 27.3621 84.2083 26.2529 84.0553 24.9678C83.9023 23.6826 83.8258 22.1909 83.8258 20.4927C83.8258 17.4634 84.1777 14.7018 84.8814 12.208C85.5852 9.71419 86.5567 7.57227 87.796 5.78223C89.0505 3.99219 90.5269 2.60758 92.2252 1.62842C93.9234 0.633952 95.767 0.136719 97.756 0.136719C99.5001 0.136719 101.206 0.618652 102.874 1.58252C104.541 2.54639 106.025 3.94629 107.326 5.78223C108.626 7.60286 109.674 9.84424 110.47 12.5063C111.265 15.1532 111.663 18.1748 111.663 21.5713C111.663 23.1318 111.579 24.5011 111.411 25.6792C111.242 26.842 110.952 27.8517 110.539 28.7085C110.141 29.55 109.598 30.2537 108.909 30.8198C108.221 31.3706 107.349 31.8143 106.293 32.1509C105.253 32.4722 104.013 32.7017 102.575 32.8394C101.137 32.9618 99.4695 33.0229 97.5724 33.0229ZM97.8707 20.5615C98.651 20.5615 99.3853 20.4544 100.074 20.2402C100.778 20.026 101.39 19.6971 101.91 19.2534C102.43 18.7944 102.843 18.2131 103.149 17.5093C103.455 16.8055 103.608 15.964 103.608 14.9849C103.608 14.4647 103.554 13.8986 103.447 13.2866C103.34 12.6593 103.18 12.0321 102.965 11.4048C102.767 10.7775 102.514 10.1655 102.208 9.56885C101.902 8.97217 101.543 8.44434 101.129 7.98535C100.716 7.52637 100.25 7.15918 99.7296 6.88379C99.2094 6.6084 98.6433 6.4707 98.0313 6.4707C97.1134 6.4707 96.2949 6.73844 95.5758 7.27393C94.8567 7.79411 94.2447 8.49023 93.7398 9.3623C93.235 10.2191 92.8525 11.1906 92.5924 12.2769C92.3323 13.3631 92.2022 14.4647 92.2022 15.5815C92.2022 16.5913 92.3476 17.4251 92.6383 18.083C92.9443 18.7256 93.3497 19.2305 93.8546 19.5977C94.3748 19.9648 94.9791 20.2173 95.6676 20.355C96.356 20.4927 97.0904 20.5615 97.8707 20.5615ZM134.776 22.168C135.51 22.168 136.13 22.0685 136.635 21.8696C137.155 21.6554 137.576 21.3571 137.897 20.9746C138.218 20.5921 138.448 20.1255 138.585 19.5747C138.723 19.0239 138.792 18.4043 138.792 17.7158C138.792 17.2415 138.715 16.6449 138.562 15.9258C138.409 15.2067 138.188 14.4417 137.897 13.6309C137.606 12.82 137.262 12.0168 136.864 11.2212C136.482 10.4103 136.053 9.68359 135.579 9.04102C135.105 8.38314 134.6 7.85531 134.064 7.45752C133.529 7.04443 132.97 6.83789 132.389 6.83789C132.114 6.83789 131.877 6.93734 131.678 7.13623C131.479 7.33512 131.31 7.59521 131.173 7.9165C131.035 8.23779 130.928 8.59733 130.851 8.99512C130.775 9.3929 130.714 9.78304 130.668 10.1655C130.637 10.548 130.614 10.9076 130.599 11.2441C130.584 11.5654 130.576 11.8255 130.576 12.0244C130.576 12.4987 130.576 13.0801 130.576 13.7686C130.591 14.457 130.637 15.1838 130.714 15.9487C130.79 16.6984 130.913 17.4481 131.081 18.1978C131.249 18.9321 131.486 19.5977 131.792 20.1943C132.114 20.7757 132.511 21.25 132.986 21.6172C133.475 21.9844 134.072 22.168 134.776 22.168ZM133.146 33.0229C131.953 33.0229 130.874 33.0306 129.911 33.0459C128.962 33.0765 128.105 33.0918 127.34 33.0918C126.346 33.0918 125.504 33.0459 124.816 32.9541C124.143 32.8623 123.6 32.6711 123.186 32.3804C122.773 32.0897 122.475 31.6689 122.291 31.1182C122.123 30.5674 122.039 29.833 122.039 28.915C122.039 27.2474 122.108 25.8016 122.246 24.5776C122.399 23.3537 122.574 22.2674 122.773 21.3188C122.988 20.355 123.217 19.4829 123.462 18.7026C123.722 17.9071 123.951 17.1268 124.15 16.3618C124.364 15.5815 124.54 14.7707 124.678 13.9292C124.831 13.0724 124.908 12.0933 124.908 10.9917C124.908 10.1502 124.816 9.44645 124.632 8.88037C124.464 8.31429 124.265 7.77116 124.036 7.25098C123.821 6.71549 123.622 6.14176 123.439 5.52979C123.271 4.91781 123.186 4.14518 123.186 3.21191C123.186 2.44694 123.347 1.85791 123.668 1.44482C123.99 1.01644 124.449 0.710449 125.045 0.526855C125.657 0.327962 126.399 0.213216 127.271 0.182617C128.159 0.152018 129.161 0.136719 130.278 0.136719C131.624 0.136719 132.963 0.358561 134.294 0.802246C135.64 1.24593 136.925 1.88086 138.149 2.70703C139.373 3.5332 140.513 4.54297 141.569 5.73633C142.64 6.91439 143.565 8.24544 144.346 9.72949C145.126 11.2135 145.738 12.8429 146.182 14.6177C146.625 16.3771 146.847 18.2437 146.847 20.2173C146.847 22.5581 146.656 24.5394 146.273 26.1611C145.906 27.7829 145.218 29.1063 144.208 30.1313C143.198 31.1411 141.806 31.8755 140.031 32.3345C138.256 32.7935 135.962 33.0229 133.146 33.0229ZM160.538 33.0229C158.641 33.0229 156.981 32.9541 155.558 32.8164C154.135 32.6634 152.911 32.411 151.886 32.0591C150.876 31.6919 150.042 31.2023 149.384 30.5903C148.726 29.9784 148.206 29.2134 147.824 28.2954C147.441 27.3621 147.174 26.2529 147.021 24.9678C146.868 23.6826 146.791 22.1909 146.791 20.4927C146.791 17.4634 147.143 14.7018 147.847 12.208C148.551 9.71419 149.522 7.57227 150.761 5.78223C152.016 3.99219 153.492 2.60758 155.191 1.62842C156.889 0.633952 158.732 0.136719 160.721 0.136719C162.465 0.136719 164.171 0.618652 165.839 1.58252C167.507 2.54639 168.991 3.94629 170.291 5.78223C171.592 7.60286 172.64 9.84424 173.435 12.5063C174.231 15.1532 174.628 18.1748 174.628 21.5713C174.628 23.1318 174.544 24.5011 174.376 25.6792C174.208 26.842 173.917 27.8517 173.504 28.7085C173.106 29.55 172.563 30.2537 171.875 30.8198C171.186 31.3706 170.314 31.8143 169.258 32.1509C168.218 32.4722 166.979 32.7017 165.541 32.8394C164.102 32.9618 162.435 33.0229 160.538 33.0229ZM160.836 20.5615C161.616 20.5615 162.351 20.4544 163.039 20.2402C163.743 20.026 164.355 19.6971 164.875 19.2534C165.395 18.7944 165.808 18.2131 166.114 17.5093C166.42 16.8055 166.573 15.964 166.573 14.9849C166.573 14.4647 166.52 13.8986 166.413 13.2866C166.306 12.6593 166.145 12.0321 165.931 11.4048C165.732 10.7775 165.479 10.1655 165.173 9.56885C164.867 8.97217 164.508 8.44434 164.095 7.98535C163.682 7.52637 163.215 7.15918 162.695 6.88379C162.175 6.6084 161.609 6.4707 160.997 6.4707C160.079 6.4707 159.26 6.73844 158.541 7.27393C157.822 7.79411 157.21 8.49023 156.705 9.3623C156.2 10.2191 155.818 11.1906 155.558 12.2769C155.298 13.3631 155.168 14.4647 155.168 15.5815C155.168 16.5913 155.313 17.4251 155.604 18.083C155.91 18.7256 156.315 19.2305 156.82 19.5977C157.34 19.9648 157.944 20.2173 158.633 20.355C159.321 20.4927 160.056 20.5615 160.836 20.5615ZM182.077 33.0229C180.746 33.0229 179.614 32.9847 178.68 32.9082C177.762 32.8164 177.013 32.6252 176.431 32.3345C175.85 32.0285 175.429 31.5848 175.169 31.0034C174.909 30.422 174.779 29.6418 174.779 28.6626C174.779 27.6069 174.909 26.383 175.169 24.9907C175.445 23.5832 175.743 22.0915 176.064 20.5156C176.385 18.9398 176.676 17.318 176.936 15.6504C177.212 13.9827 177.349 12.3457 177.349 10.7393C177.349 9.89779 177.265 9.20931 177.097 8.67383C176.929 8.12305 176.745 7.61816 176.546 7.15918C176.347 6.7002 176.164 6.23356 175.995 5.75928C175.827 5.26969 175.743 4.67301 175.743 3.96924C175.743 3.17367 175.819 2.53109 175.972 2.0415C176.125 1.53662 176.37 1.14648 176.707 0.871094C177.059 0.580404 177.518 0.38916 178.084 0.297363C178.65 0.190267 179.338 0.136719 180.149 0.136719H185.198C186.009 0.136719 186.881 0.251465 187.814 0.480957C188.763 0.69515 189.704 1.03939 190.637 1.51367C191.57 1.97266 192.473 2.56169 193.345 3.28076C194.217 3.99984 194.99 4.85661 195.663 5.85107C196.336 6.84554 196.871 7.993 197.269 9.29346C197.667 10.5786 197.866 12.0168 197.866 13.6079C197.866 15.0308 197.759 16.2394 197.545 17.2339C197.33 18.2131 196.94 19.0163 196.374 19.6436C195.823 20.2555 195.058 20.6992 194.079 20.9746C193.115 21.25 191.869 21.3877 190.339 21.3877C189.62 21.3877 188.992 21.2576 188.457 20.9976C187.921 20.7375 187.455 20.4544 187.057 20.1484C186.674 19.8271 186.345 19.5365 186.07 19.2764C185.795 19.0163 185.565 18.8862 185.382 18.8862C185.183 18.8862 185.06 18.9933 185.014 19.2075C184.984 19.4064 184.968 19.5671 184.968 19.6895C184.968 20.2249 185.06 20.7757 185.244 21.3418C185.443 21.9079 185.688 22.474 185.978 23.04C186.269 23.5908 186.583 24.134 186.919 24.6694C187.256 25.1896 187.569 25.6945 187.86 26.1841C188.151 26.6737 188.388 27.1326 188.572 27.561C188.77 27.9741 188.87 28.3413 188.87 28.6626C188.87 29.4582 188.747 30.139 188.503 30.7051C188.273 31.2559 187.891 31.7072 187.355 32.0591C186.82 32.3957 186.116 32.6405 185.244 32.7935C184.387 32.9465 183.331 33.0229 182.077 33.0229ZM187.562 15.7651C188.617 15.7651 189.344 15.5509 189.742 15.1226C190.14 14.6942 190.339 14.0592 190.339 13.2178C190.339 12.9424 190.316 12.6058 190.27 12.208C190.239 11.7949 190.178 11.3665 190.086 10.9229C189.994 10.4792 189.857 10.0355 189.673 9.5918C189.505 9.13281 189.291 8.72738 189.031 8.37549C188.77 8.0083 188.449 7.71761 188.067 7.50342C187.699 7.27393 187.263 7.15918 186.759 7.15918C185.825 7.15918 185.099 7.44987 184.578 8.03125C184.073 8.61263 183.821 9.5153 183.821 10.7393C183.821 11.5042 183.89 12.2004 184.028 12.8276C184.165 13.4396 184.379 13.9674 184.67 14.4111C184.976 14.8395 185.366 15.1761 185.841 15.4209C186.315 15.6504 186.889 15.7651 187.562 15.7651ZM204.006 33.0229C202.568 33.0229 201.352 32.9771 200.357 32.8853C199.363 32.7782 198.552 32.564 197.925 32.2427C197.313 31.9214 196.869 31.4624 196.594 30.8657C196.318 30.2537 196.181 29.4429 196.181 28.4331C196.181 26.6584 196.334 25.029 196.64 23.5449C196.961 22.0456 197.313 20.6074 197.695 19.2305C198.078 17.8382 198.422 16.4613 198.728 15.0996C199.049 13.7227 199.21 12.2692 199.21 10.7393C199.21 10.112 199.164 9.5612 199.072 9.08691C198.996 8.59733 198.889 8.1613 198.751 7.77881C198.628 7.39632 198.491 7.04443 198.338 6.72314C198.185 6.38656 198.039 6.05762 197.902 5.73633C197.779 5.39974 197.672 5.04785 197.58 4.68066C197.504 4.29818 197.466 3.86979 197.466 3.39551C197.466 2.67643 197.573 2.1027 197.787 1.67432C198.001 1.24593 198.353 0.916992 198.843 0.6875C199.348 0.442708 200.005 0.289714 200.816 0.228516C201.642 0.152018 202.652 0.11377 203.846 0.11377L213.117 0.136719C213.714 0.136719 214.265 0.205566 214.769 0.343262C215.29 0.480957 215.733 0.718099 216.1 1.05469C216.468 1.39128 216.751 1.85026 216.95 2.43164C217.164 3.01302 217.271 3.7474 217.271 4.63477C217.271 4.89486 217.225 5.1626 217.133 5.43799C217.041 5.69808 216.896 5.93522 216.697 6.14941C216.514 6.34831 216.261 6.5166 215.94 6.6543C215.634 6.77669 215.259 6.83789 214.815 6.83789C214.632 6.83789 214.341 6.76904 213.943 6.63135C213.561 6.49365 213.102 6.34831 212.566 6.19531C212.031 6.02702 211.426 5.87402 210.753 5.73633C210.095 5.59863 209.399 5.52979 208.665 5.52979C207.15 5.52979 206.087 5.82048 205.475 6.40186C204.863 6.98324 204.557 7.9165 204.557 9.20166C204.557 9.67594 204.641 10.0355 204.809 10.2803C204.978 10.5098 205.23 10.6704 205.567 10.7622C205.903 10.854 206.332 10.8999 206.852 10.8999C207.372 10.8999 207.976 10.8999 208.665 10.8999C209.017 10.8999 209.438 10.854 209.927 10.7622C210.432 10.6704 210.922 10.571 211.396 10.4639C211.885 10.3415 212.329 10.2344 212.727 10.1426C213.14 10.0508 213.423 10.0049 213.576 10.0049C213.897 10.0049 214.203 10.0508 214.494 10.1426C214.8 10.2191 215.06 10.3338 215.274 10.4868C215.504 10.6245 215.68 10.8005 215.802 11.0146C215.94 11.2135 216.009 11.4277 216.009 11.6572C216.009 11.8867 215.978 12.2004 215.917 12.5981C215.856 12.9959 215.68 13.3861 215.389 13.7686C215.114 14.151 214.678 14.48 214.081 14.7554C213.484 15.0308 212.658 15.1685 211.602 15.1685C211.449 15.1685 211.235 15.1379 210.96 15.0767C210.684 15.0155 210.378 14.9466 210.042 14.8701C209.705 14.7936 209.346 14.7248 208.963 14.6636C208.581 14.6024 208.198 14.5718 207.816 14.5718C207.479 14.5718 207.15 14.633 206.829 14.7554C206.523 14.8625 206.255 15.0231 206.026 15.2373C205.796 15.4515 205.613 15.7039 205.475 15.9946C205.337 16.2853 205.268 16.6143 205.268 16.9814C205.268 17.5475 205.376 18.0295 205.59 18.4272C205.819 18.8097 206.102 19.1234 206.439 19.3682C206.791 19.613 207.166 19.7889 207.563 19.896C207.976 20.0031 208.359 20.0566 208.711 20.0566C209.124 20.0566 209.552 20.0413 209.996 20.0107C210.44 19.9648 210.876 19.896 211.304 19.8042C211.748 19.6971 212.169 19.5594 212.566 19.3911C212.979 19.2228 213.347 19.001 213.668 18.7256C213.836 18.5879 214.02 18.4578 214.219 18.3354C214.418 18.1978 214.632 18.1289 214.861 18.1289C215.657 18.1289 216.299 18.3507 216.789 18.7944C217.294 19.2381 217.684 19.896 217.959 20.7681C218.235 21.6401 218.418 22.7264 218.51 24.0269C218.602 25.3273 218.648 26.8267 218.648 28.5249C218.648 29.2134 218.533 29.8407 218.304 30.4067C218.089 30.9575 217.699 31.4318 217.133 31.8296C216.582 32.2121 215.833 32.5104 214.884 32.7246C213.951 32.9235 212.765 33.0229 211.327 33.0229H204.006ZM220.064 17.534H251.224V19.966H220.064V17.534ZM223.788 22.702H247.348V30.036H226.98V34.064H223.864V27.87H244.232V24.982H223.788V22.702ZM223.864 33.228H248.45V35.508H223.864V33.228ZM224.016 2.6H247.234V9.744H227.208V13.468H224.092V7.616H244.118V4.842H224.016V2.6ZM224.092 12.708H247.842V14.988H224.092V12.708ZM78.3914 42.0527V66.4336H75.4968V42.0527H78.3914ZM79.4304 71.8516V74.3008H57.0906V64.1699H59.9851V71.8516H79.4304ZM63.1394 49.7344C63.1394 54.1133 66.6648 57.9727 71.6003 59.4941L70.1531 61.832C66.2752 60.5889 63.2136 57.9541 61.7293 54.5215C60.282 58.2139 57.239 61.0713 53.3054 62.4258L51.8211 60.125C56.7566 58.5293 60.2449 54.373 60.2449 49.7344V48.8438H52.6375V46.5059H60.2449V42.2012H63.1765V46.5059H70.7097V48.8438H63.1394V49.7344ZM108.943 44.168V47.0625C108.943 50.1982 108.943 53.5938 108.015 58.3438H112.913V60.7559H99.2943V75.0801H96.3627V60.7559H82.8549V58.3438H105.046C106.048 53.5938 106.048 50.124 106.048 47.0625V46.5801H86.64V44.168H108.943ZM142.834 42.0156V75.0059H140.014V42.0156H142.834ZM136.191 42.7207V73.3359H133.408V57.3047H129.178C128.862 63.7246 126.135 67.7324 122.053 67.7324C117.748 67.7324 114.965 63.2793 114.965 56.2656C114.965 49.252 117.748 44.7988 122.053 44.7988C126.061 44.7988 128.77 48.6768 129.141 54.8926H133.408V42.7207H136.191ZM122.053 47.5449C119.381 47.5449 117.674 50.8848 117.711 56.2656C117.674 61.6094 119.381 64.9863 122.053 64.9492C124.725 64.9863 126.432 61.6094 126.432 56.2656C126.432 50.8848 124.725 47.5449 122.053 47.5449ZM174.499 42.0156V75.0059H171.716V42.0156H174.499ZM167.559 42.9062V73.3359H164.776V57.9355H157.799C155.777 61.7764 152.604 65.1719 148.003 67.8809L146.296 65.7656C153.476 61.5166 157.076 55.5605 157.614 48.6582H147.706V46.2461H160.508C160.49 49.4932 159.97 52.6289 158.876 55.5605H164.776V42.9062H167.559ZM212.148 42.0156V49.1777H217.121V51.627H212.148V58.8262H209.254V42.0156H212.148ZM212.148 60.3848V68.4375H194.039V72.2227H213.373V74.5605H191.182V66.2109H209.254V62.7227H191.107V60.3848H212.148ZM195.561 43.2402C200.533 43.2773 204.133 46.2461 204.133 50.5508C204.133 54.8926 200.533 57.8984 195.561 57.8984C190.625 57.8984 186.951 54.8926 186.988 50.5508C186.951 46.2461 190.625 43.2773 195.561 43.2402ZM195.561 45.6895C192.258 45.6523 189.809 47.6934 189.846 50.5508C189.809 53.4453 192.258 55.5234 195.561 55.5234C198.863 55.5234 201.275 53.4453 201.275 50.5508C201.275 47.6934 198.863 45.6523 195.561 45.6895ZM245.372 42.0156V75.0801H242.477V61.0156H235.612V58.5664H242.477V51.998H235.872V49.5488H242.477V42.0156H245.372ZM233.719 45.0215V56.748H222.215V64.875C227.17 64.8564 231.27 64.6709 236.28 63.9102L236.54 66.3594C231.27 67.1758 227.04 67.3613 221.77 67.3613H219.321V54.373H230.862V47.4336H219.21V45.0215H233.719ZM16.3608 83.8359V106.176H0.144028V83.8359H16.3608ZM4.81981 87.5469V102.428H11.6479V87.5469H4.81981ZM25.7124 80.6445V93.373H30.685V97.3066H25.7124V114.414H20.9624V80.6445H25.7124ZM61.9415 85.0977V88.9199H57.5626V92.3711H61.9415V96.3047H57.5626V100.572H52.8126V80.6445H57.5626V85.0977H61.9415ZM57.5626 101.908V114.414H52.8126V105.73H34.8146V101.908H57.5626ZM40.2697 82.5C45.5021 82.4629 49.4728 85.9512 49.4728 90.7012C49.4728 95.5625 45.5021 98.9766 40.2697 98.9766C35.0001 98.9766 30.9923 95.5625 30.9923 90.7012C30.9923 85.9512 35.0001 82.4629 40.2697 82.5ZM40.2697 86.5449C37.5978 86.5449 35.631 88.0664 35.6681 90.7012C35.631 93.4102 37.5978 94.9688 40.2697 94.9688C42.8673 94.9688 44.8341 93.4102 44.8712 90.7012C44.8341 88.0664 42.8673 86.5449 40.2697 86.5449ZM73.4187 82.9082C78.7625 82.8711 82.7703 86.3594 82.7703 91.1836C82.7703 96.0449 78.7625 99.4961 73.4187 99.4961C68.075 99.4961 64.03 96.0449 64.03 91.1836C64.03 86.3594 68.075 82.8711 73.4187 82.9082ZM73.4187 86.9902C70.7468 86.9902 68.7058 88.5488 68.7429 91.1836C68.7058 93.8555 70.7468 95.377 73.4187 95.377C76.0906 95.377 78.1316 93.8555 78.1687 91.1836C78.1316 88.5488 76.1277 86.9902 73.4187 86.9902ZM90.8601 80.6445V114.488H86.1472V80.6445H90.8601ZM62.6199 103.727C68.6316 103.764 76.9812 103.652 84.2175 102.65L84.5886 106.064C77.0925 107.512 69.0769 107.586 63.1765 107.586L62.6199 103.727ZM112.813 82.0547C117.971 82.0176 121.719 84.9492 121.719 89.2168C121.719 93.4473 117.971 96.416 112.813 96.3789C107.654 96.416 103.906 93.4473 103.943 89.2168C103.906 84.9492 107.654 82.0176 112.813 82.0547ZM112.813 85.8398C110.289 85.8398 108.508 87.0645 108.508 89.2168C108.508 91.332 110.289 92.5566 112.813 92.5195C115.41 92.5566 117.229 91.332 117.229 89.2168C117.229 87.0645 115.41 85.8398 112.813 85.8398ZM130.254 80.6816V114.414H125.578V80.6816H130.254ZM101.865 98.457C107.84 98.457 116.338 98.3086 123.537 97.2324L123.834 100.721C121.051 101.277 118.193 101.63 115.373 101.834V113.412H110.66V102.131C107.691 102.261 104.89 102.279 102.459 102.316L101.865 98.457ZM161.956 80.6445V101.055H157.243V94.4121H152.864V90.5527H157.243V80.6445H161.956ZM161.956 102.502V114.043H139.245V102.502H161.956ZM143.995 106.213V110.258H157.317V106.213H143.995ZM153.458 83.5762V87.3613H133.567V83.5762H141.212V80.3477H145.887V83.5762H153.458ZM143.549 88.4746C148.299 88.4746 151.639 90.998 151.639 94.5234C151.639 98.1973 148.299 100.646 143.549 100.646C138.837 100.646 135.423 98.1973 135.423 94.5234C135.423 90.998 138.837 88.4746 143.549 88.4746ZM143.549 92.0371C141.36 92.0371 139.95 92.9277 139.987 94.5234C139.95 96.2305 141.36 97.1582 143.549 97.1582C145.702 97.1582 147.112 96.2305 147.112 94.5234C147.112 92.9277 145.702 92.0371 143.549 92.0371ZM177.96 85.2461C177.923 89.7734 180.261 93.9297 185.679 95.5996L183.193 99.3105C179.556 98.0488 177.088 95.7109 175.697 92.668C174.175 96.1934 171.448 98.9766 167.384 100.35L164.898 96.5645C170.687 94.709 173.136 90.1816 173.173 85.4688V82.3887H177.96V85.2461ZM193.658 80.6445V100.424H188.945V90.7012H182.599V86.8418H188.945V80.6445H193.658ZM182.117 101.314C189.316 101.314 193.732 103.727 193.769 107.883C193.732 112.039 189.316 114.414 182.117 114.414C174.917 114.414 170.501 112.039 170.501 107.883C170.501 103.727 174.917 101.314 182.117 101.314ZM182.117 104.988C177.626 104.988 175.214 105.953 175.214 107.883C175.214 109.738 177.626 110.74 182.117 110.74C186.607 110.74 189.056 109.738 189.056 107.883C189.056 105.953 186.607 104.988 182.117 104.988ZM212.26 81.6094C219.607 81.6094 223.912 83.6133 223.912 87.2871C223.912 91.0352 219.607 93.0391 212.26 93.0762C204.912 93.0391 200.57 91.0352 200.57 87.2871C200.57 83.6133 204.912 81.6094 212.26 81.6094ZM212.26 83.7988C206.768 83.7988 203.576 85.1348 203.613 87.2871C203.576 89.5879 206.768 90.8496 212.26 90.8496C217.715 90.8496 220.943 89.5879 220.943 87.2871C220.943 85.1348 217.715 83.7988 212.26 83.7988ZM227.289 95.3027V97.6777H197.23V95.3027H227.289ZM223.43 100.535V107.92H203.836V111.334H224.432V113.635H200.941V105.768H220.572V102.762H200.867V100.535H223.43ZM242.228 82.6484V94.2266C247.386 94.208 251.746 93.9482 256.552 93.002L256.997 95.4141C251.802 96.416 247.312 96.7129 241.82 96.6758H239.296V82.6484H242.228ZM264.679 81.0156V98.123H261.747V88.957H252.247V86.582H261.747V81.0156H264.679ZM264.679 99.6445V107.549H246.273V111.186H265.866V113.561H243.378V105.285H261.747V102.02H243.304V99.6445H264.679ZM296.269 81.0156V114.08H293.375V81.0156H296.269ZM286.25 84.0957V95.8223H273.93V103.615C279.403 103.615 284.283 103.374 290.183 102.428L290.48 104.877C284.394 105.842 279.385 106.064 273.707 106.064H270.961V93.4473H283.318V86.5078H270.887V84.0957H286.25ZM78.309 123.504V125.953H74.4867V141.91C76.1566 141.817 77.7895 141.669 79.348 141.502L79.5336 143.654C72.7797 144.693 64.9867 144.842 59.1977 144.842L58.9008 142.355L63.3539 142.318V125.953H59.9398V123.504H78.309ZM86.5102 120.016V153.006H83.6156V134.896H77.1586V132.484H83.6156V120.016H86.5102ZM66.2113 142.244C67.9926 142.226 69.8295 142.17 71.6664 142.059V125.953H66.2113V142.244ZM117.581 137.865V140.24H94.7588V122.873H117.21V125.322H97.7276V130.221H116.505V132.559H97.7276V137.865H117.581ZM121.069 146.289V148.701H90.8623V146.289H121.069ZM149.877 120.016V153.08H146.982V139.016H140.117V136.566H146.982V129.998H140.377V127.549H146.982V120.016H149.877ZM138.224 123.021V134.748H126.72V142.875C131.674 142.856 135.775 142.671 140.785 141.91L141.045 144.359C135.775 145.176 131.545 145.361 126.275 145.361H123.826V132.373H135.367V125.434H123.715V123.021H138.224ZM170.928 124.691C170.891 129.107 176.791 132.855 182.543 133.709L181.467 136.01C176.309 135.138 171.299 132.392 169.295 128.402C167.291 132.392 162.263 135.138 157.198 136.01L156.047 133.709C161.762 132.855 167.662 129.107 167.662 124.691V124.469H157.086V122.094H181.467V124.469H170.928V124.691ZM184.325 138.83V141.242H170.668V153.006H167.811V141.242H154.266V138.83H184.325ZM195.765 129.404C195.765 134.637 198.325 140.314 202.704 142.912L201.034 145.176C197.861 143.246 195.579 139.721 194.429 135.713C193.204 140.092 190.755 143.858 187.452 145.881L185.597 143.691C190.161 141.02 192.944 135.156 192.944 129.516V123.133H195.765V129.404ZM214.245 120.016V153.006H211.425V120.016H214.245ZM207.417 120.721V151.336H204.671V134.34H199.067V131.854H204.671V120.721H207.417ZM247.877 146.326V148.775H217.67V146.326H225.166V137.42C222.345 135.954 220.638 133.579 220.638 130.592C220.638 125.471 225.648 122.131 232.699 122.094C239.75 122.131 244.759 125.471 244.759 130.592C244.759 133.523 243.108 135.88 240.38 137.346V146.326H247.877ZM232.699 124.506C227.281 124.469 223.459 126.918 223.459 130.592C223.459 134.266 227.281 136.752 232.699 136.752C238.08 136.752 241.939 134.266 241.939 130.592C241.939 126.918 238.08 124.469 232.699 124.506ZM228.023 146.326H237.449V138.459C236.02 138.849 234.424 139.053 232.699 139.053C231.01 139.053 229.433 138.867 228.023 138.496V146.326Z" fill="white"/>
</svg>
